<?xml version="1.0" encoding="utf-8" standalone="yes"?>
<!DOCTYPE svg PUBLIC "-//W3C//DTD SVG 1.1//EN" "http://www.w3.org/Graphics/SVG/1.1/DTD/svg11.dtd">
<svg width="756" height="852" viewBox="0 0 756 852" style="fill:none;stroke:none;fill-rule:evenodd;clip-rule:evenodd;stroke-linecap:round;stroke-linejoin:round;stroke-miterlimit:1.5;" version="1.1" xmlns="http://www.w3.org/2000/svg" xmlns:xlink="http://www.w3.org/1999/xlink"><style class="text-font-style fontImports" data-font-family="Shantell Sans">@import url(https://fonts.googleapis.com/css2?family=Shantell+Sans:wght@300..800&amp;amp;display=block);</style><g id="items" style="isolation: isolate"><g id="blend" style="mix-blend-mode: normal"><g id="g-root-cp_1_g-1_1_4ikxv61hbwhl0-fill" data-item-order="-535144" transform="translate(218, 98)"><g id="cp_1_g-1_1_4ikxv61hbwhl0-fill" stroke="none" fill="#fff8b6"><g><path d="M 22 22L 10 22C 10 15.3957 15.3957 10 22 10L 22 22ZM 22 10L 22 22L 226 22L 226 10L 22 10ZM 238 22L 226 22L 226 10C 232.6158 10 238 15.3842 238 22ZM 238 130L 10 130L 10 22L 238 22L 238 130Z"></path></g></g></g><g id="g-root-cp_0_g-0_1_1q88hgy1hbwiyu-fill" data-item-order="-535116" transform="translate(218, 218)"><g id="cp_0_g-0_1_1q88hgy1hbwiyu-fill" stroke="none" fill="#ebebeb"><g><path d="M 10 561.999939L 22 561.999939L 22 573.999939C 15.3726 573.999939 10 568.627339 10 561.999939ZM 226 573.999939L 226 561.999939L 22 561.999939L 22 573.999939L 226 573.999939ZM 238 561.999939C 238 568.627339 232.6274 573.999939 226 573.999939L 226 561.999939L 238 561.999939ZM 238 10L 10 10L 10 561.999939L 238 561.999939L 238 10Z"></path></g></g></g><g id="g-root-cp_1-1_cell-1-1_1lsezci1hbwjr4-fill" data-item-order="-535095" transform="translate(230, 230)"></g><g id="g-root-cp_2-1_cell-2-1_1cwrz3m1hbwkju-fill" data-item-order="-535077" transform="translate(230, 314)"></g><g id="g-root-cp_3-1_cell-3-1_18hky2a1hbwi6c-fill" data-item-order="-535059" transform="translate(230, 374)"></g><g id="g-root-cp_4-1_cell-4-1_18hky2a1hbwi6e-fill" data-item-order="-535041" transform="translate(230, 434)"></g><g id="g-root-cp_5-1_cell-5-1_141rfxu1hbwiyo-fill" data-item-order="-535023" transform="translate(230, 494)"></g><g id="g-root-cp_6-1_cell-6-1_141rfxu1hbwiyq-fill" data-item-order="-535005" transform="translate(230, 554)"></g><g id="g-root-cp_7-1_cell-7-1_v64foy1hbwjrg-fill" data-item-order="-534987" transform="translate(230, 638)"></g><g id="g-root-cp_8-1_cell-8-1_qqaxki1hbwkjq-fill" data-item-order="-534969" transform="translate(230, 710)"></g><g id="g-root-cp_1_g-1_2_qqaxki1hbwkjs-fill" data-item-order="-534950" transform="translate(470, 98)"><g id="cp_1_g-1_2_qqaxki1hbwkjs-fill" stroke="none" fill="#ffe4cb"><g><path d="M 22 22L 10 22C 10 15.3957 15.3957 10 22 10L 22 22ZM 22 10L 22 22L 226 22L 226 10L 22 10ZM 238 22L 226 22L 226 10C 232.6158 10 238 15.3842 238 22ZM 238 130L 10 130L 10 22L 238 22L 238 130Z"></path></g></g></g><g id="g-root-cp_0_g-0_2_mb3wj61hbwi6a-fill" data-item-order="-534920" transform="translate(470, 218)"><g id="cp_0_g-0_2_mb3wj61hbwi6a-fill" stroke="none" fill="#ebebeb"><g><path d="M 10 561.999939L 22 561.999939L 22 573.999939C 15.3726 573.999939 10 568.627339 10 561.999939ZM 226 573.999939L 226 561.999939L 22 561.999939L 22 573.999939L 226 573.999939ZM 238 561.999939C 238 568.627339 232.6274 573.999939 226 573.999939L 226 561.999939L 238 561.999939ZM 238 10L 10 10L 10 561.999939L 238 561.999939L 238 10Z"></path></g></g></g><g id="g-root-cp_1-2_cell-1-2_dfgwaa1hbwiz0-fill" data-item-order="-534899" transform="translate(482, 230)"></g><g id="g-root-cp_2-2_cell-2-2_8zne5u1hbwjra-fill" data-item-order="-534881" transform="translate(482, 314)"></g><g id="g-root-cp_3-2_cell-3-2_4jtw1e1hbwkjk-fill" data-item-order="-534863" transform="translate(482, 374)"></g><g id="g-root-cp_4-2_cell-4-2_4jtw1e1hbwkjm-fill" data-item-order="-534845" transform="translate(482, 434)"></g><g id="g-root-cp_5-2_cell-5-2_1upxeuq1hbwhzg-fill" data-item-order="-534827" transform="translate(482, 494)"></g><g id="g-root-cp_6-2_cell-6-2_1upxeuq1hbwhzi-fill" data-item-order="-534809" transform="translate(482, 554)"></g><g id="g-root-cp_7-2_cell-7-2_1qa3wqa1hbwirs-fill" data-item-order="-534791" transform="translate(482, 638)"></g><g id="g-root-cp_8-2_cell-8-2_1luaelu1hbwjk2-fill" data-item-order="-534773" transform="translate(482, 710)"></g><g id="g-root-ic_over_1d0itma1hbwjd9-fill" data-item-order="-2304" transform="translate(308, 122)"><g id="ic_over_1d0itma1hbwjd9-fill" stroke="none" fill="#e0cb15"><g><path d="M 41.599998 58L 19.6 58C 16.286291 58 13.6 55.313709 13.6 52L 13.6 39C 13.6 37.895432 14.49543 37 15.6 37C 16.704569 37 17.6 37.895432 17.6 39L 17.6 52C 17.6 53.104568 18.49543 54 19.6 54L 41.599998 54C 42.704571 54 43.599998 53.104568 43.599998 52L 43.599998 39C 43.599998 37.895432 44.49543 37 45.599998 37C 46.704571 37 47.599998 37.895432 47.599998 39L 47.599998 52C 47.600002 55.313709 44.913708 58 41.599998 58ZM 38.599998 50L 22.6 50C 21.49543 50 20.6 49.104568 20.6 48C 20.6 46.895432 21.49543 46 22.6 46L 38.599998 46C 39.704567 46 40.599998 46.895432 40.599998 48C 40.599998 49.104568 39.704567 50 38.599998 50ZM 39.360001 44.540001C 39.220695 44.559696 39.079308 44.559696 38.940002 44.540001L 23.299999 41.18C 22.195431 40.953568 21.483564 39.874573 21.710001 38.770004C 21.936438 37.665432 23.01543 36.953568 24.120001 37.18L 39.779999 40.5C 40.30043 40.610298 40.755478 40.923393 41.044483 41.370041C 41.333488 41.816685 41.43264 42.360069 41.32 42.880001C 41.155235 43.835175 40.329269 44.534721 39.360001 44.540001ZM 41.239998 39.440002C 40.95845 39.444988 40.679024 39.390465 40.419998 39.279999L 25.799999 32.779999C 24.789219 32.33271 24.332466 31.150673 24.779844 30.139931C 25.227222 29.129189 26.409296 28.672537 27.42 29.119999L 42 35.620003C 42.851662 36.007774 43.320587 36.934246 43.128773 37.850159C 42.936958 38.766075 42.135689 39.426544 41.200001 39.440002ZM 44.119999 34.860001C 43.700974 34.851501 43.295204 34.711582 42.959999 34.459999L 30 25.08C 29.387815 24.674925 29.046734 23.967037 29.111423 23.235825C 29.176115 22.504612 29.636179 21.867599 30.309973 21.576296C 30.983767 21.284992 31.762995 21.386215 32.34 21.84L 45.299999 31.24C 46.171799 31.887886 46.36713 33.113155 45.740002 34C 45.371021 34.531971 44.767365 34.852432 44.119999 34.860001ZM 48 30.959999C 47.435642 30.958666 46.898117 30.71896 46.52 30.299999L 35.700001 18.42C 35.037155 17.594591 35.132317 16.39563 35.917061 15.685115C 36.701813 14.9746 37.904305 14.998661 38.66 15.74L 49.380001 27.620001C 50.118095 28.438084 50.055496 29.699045 49.240002 30.440001C 48.899067 30.751247 48.46096 30.934969 48 30.959999ZM 52.419998 28C 51.702629 28.002848 51.038681 27.621269 50.68 27L 42.68 13.16C 42.390156 12.698766 42.300987 12.139258 42.433109 11.610777C 42.565228 11.082296 42.907204 10.630573 43.380001 10.36C 44.330746 9.813836 45.543976 10.134985 46.099998 11.08L 54.099998 24.92C 54.494576 25.535 54.522358 26.316233 54.172462 26.957706C 53.822567 27.599182 53.150696 27.998783 52.419998 28Z"></path></g></g></g><g id="g-root-ic_laye_146r8mq1hbzcaq-fill" data-item-order="-2304" transform="translate(560, 122)"><g id="ic_laye_146r8mq1hbzcaq-fill" stroke="none" fill="#de8431"><g><path d="M 10 10M 11.58 23.720001L 33.18 33.120003C 33.70153 33.354439 34.29847 33.354439 34.82 33.120003L 56.419998 23.720001C 57.165741 23.40419 57.647423 22.669823 57.639999 21.860001C 57.647423 21.050179 57.165741 20.315811 56.419998 20L 34.82 10.58C 34.295467 10.359991 33.704529 10.359991 33.18 10.58L 11.58 20C 10.827435 20.318563 10.344385 21.062937 10.36 21.880001C 10.360654 22.68256 10.84099 23.407001 11.58 23.720001ZM 34.419998 32.220001ZM 10 10M 11.18 31.540001L 32.799999 40.940002C 33.17976 41.099983 33.587921 41.181618 34 41.18C 34.414242 41.182526 34.823952 41.09375 35.200001 40.919998L 56.82 31.540001C 57.642429 31.398186 58.290344 30.760595 58.445351 29.94055C 58.600357 29.120504 58.229862 28.290415 57.515938 27.858198C 56.802013 27.42598 55.894753 27.482506 55.240002 28L 34 37.16L 12.76 28C 11.808642 27.754116 10.819592 28.235752 10.426523 29.136328C 10.033454 30.036903 10.352818 31.089615 11.18 31.620001ZM 55.240002 36.32L 34 45.560001L 12.76 36.32C 11.743796 35.883698 10.566305 36.353798 10.13 37.370003C 9.693695 38.386204 10.163796 39.563698 11.18 40L 32.799999 49.32C 33.562469 49.666569 34.437534 49.666569 35.200001 49.320004L 56.82 40C 57.585495 39.802155 58.162582 39.171917 58.292393 38.391998C 58.422207 37.61208 58.080372 36.828896 57.420235 36.393761C 56.760098 35.958626 55.905579 35.953232 55.240002 36.379997ZM 55.240002 44.32L 34 53.560001L 12.76 44.32C 11.743796 43.883698 10.566305 44.353798 10.13 45.370003C 9.693695 46.386204 10.163796 47.563694 11.18 48L 32.799999 57.400002C 33.17976 57.559986 33.587921 57.641617 34 57.639999C 34.414242 57.642525 34.823952 57.553753 35.200001 57.380001L 56.82 48C 57.647182 47.469616 57.966545 46.416904 57.573475 45.516327C 57.180408 44.615753 56.191357 44.134117 55.240002 44.380001Z"></path></g></g></g><g id="g-root-tx_shortliv_18kpbhu1hbzci3-fill" data-item-order="0" transform="translate(290, 326)"><g id="tx_shortliv_18kpbhu1hbzci3-fill" stroke="none" fill="#484848"><g><text style="font: 15px &quot;Shantell Sans&quot;, cursive; white-space: pre;" font-size="15px" font-family="'Shantell Sans', cursive"><tspan x="12.61" y="31.67" dominant-baseline="ideographic">Short-lived</tspan></text></g></g></g><g id="g-root-tx_large_w0he1hc0rgg-fill" data-item-order="0" transform="translate(560, 386)"><g id="tx_large_w0he1hc0rgg-fill" stroke="none" fill="#484848"><g><text style="font: 15px &quot;Shantell Sans&quot;, cursive; white-space: pre;" font-size="15px" font-family="'Shantell Sans', cursive"><tspan x="13.41" y="31.67" dominant-baseline="ideographic">Large</tspan></text></g></g></g><g id="g-root-tx_manageme_mccupe1hbwkcv-fill" data-item-order="0" transform="translate(38, 446)"><g id="tx_manageme_mccupe1hbwkcv-fill" stroke="none" fill="#484848"><g><text style="font: bold 20px &quot;Shantell Sans&quot;, cursive; white-space: pre;" font-weight="bold" font-size="20px" font-family="'Shantell Sans', cursive"><tspan x="12.93" y="35.33" dominant-baseline="ideographic">Management</tspan></text></g></g></g><g id="g-root-tx_lifetime_18jgdbm1hbwhz9-fill" data-item-order="0" transform="translate(86, 326)"><g id="tx_lifetime_18jgdbm1hbwhz9-fill" stroke="none" fill="#484848"><g><text style="font: bold 20px &quot;Shantell Sans&quot;, cursive; white-space: pre;" font-weight="bold" font-size="20px" font-family="'Shantell Sans', cursive"><tspan x="22.4" y="35.33" dominant-baseline="ideographic">Lifetime</tspan></text></g></g></g><g id="g-root-tx_compiler_hyerua1hbzci5-fill" data-item-order="0" transform="translate(266, 446)"><g id="tx_compiler_hyerua1hbzci5-fill" stroke="none" fill="#484848"><g><text style="font: 15px &quot;Shantell Sans&quot;, cursive; white-space: pre;" font-size="15px" font-family="'Shantell Sans', cursive"><tspan x="14.55" y="31.67" dominant-baseline="ideographic">Compiler/runtime</tspan></text></g></g></g><g id="g-root-tx_slower_hrjjw21hc0s92-fill" data-item-order="0" transform="translate(554, 254)"><g id="tx_slower_hrjjw21hc0s92-fill" stroke="none" fill="#484848"><g><text style="font: 15px &quot;Shantell Sans&quot;, cursive; white-space: pre;" font-size="15px" font-family="'Shantell Sans', cursive"><tspan x="15.15" y="31.67" dominant-baseline="ideographic">Slower</tspan></text></g></g></g><g id="g-root-tx_garbagec_1q6d27m1hc0s21-fill" data-item-order="0" transform="translate(512, 446)"><g id="tx_garbagec_1q6d27m1hc0s21-fill" stroke="none" fill="#484848"><g><text style="font: 15px &quot;Shantell Sans&quot;, cursive; white-space: pre;" font-size="15px" font-family="'Shantell Sans', cursive"><tspan x="15.97" y="31.67" dominant-baseline="ideographic">Garbage Collector</tspan></text></g></g></g><g id="g-root-tx_veryfast_1lw5tv61hbzax6-fill" data-item-order="0" transform="translate(296, 254)"><g id="tx_veryfast_1lw5tv61hbzax6-fill" stroke="none" fill="#484848"><g><text style="font: 15px &quot;Shantell Sans&quot;, cursive; white-space: pre;" font-size="15px" font-family="'Shantell Sans', cursive"><tspan x="13.38" y="31.67" dominant-baseline="ideographic">Very fast</tspan></text></g></g></g><g id="g-root-tx_no_dil9pu1hbzdae-fill" data-item-order="0" transform="translate(320, 506)"><g id="tx_no_dil9pu1hbzdae-fill" stroke="none" fill="#484848"><g><text style="font: 15px &quot;Shantell Sans&quot;, cursive; white-space: pre;" font-size="15px" font-family="'Shantell Sans', cursive"><tspan x="11.84" y="31.67" dominant-baseline="ideographic">No</tspan></text></g></g></g><g id="g-root-tx_allocati_1cynecy1hbwkcs-fill" data-item-order="0" transform="translate(62, 242)"><g id="tx_allocati_1cynecy1hbwkcs-fill" stroke="none" fill="#484848"><g><text style="font: bold 20px &quot;Shantell Sans&quot;, cursive; white-space: pre;" font-weight="bold" font-size="20px" font-family="'Shantell Sans', cursive"><tspan x="20.28" y="35.33" dominant-baseline="ideographic">Allocation </tspan><tspan x="66.86" y="59.33" dominant-baseline="ideographic">Speed</tspan></text></g></g></g><g id="g-root-tx_yes_1lr616a1hc0poi-fill" data-item-order="0" transform="translate(566, 506)"><g id="tx_yes_1lr616a1hc0poi-fill" stroke="none" fill="#484848"><g><text style="font: 15px &quot;Shantell Sans&quot;, cursive; white-space: pre;" font-size="15px" font-family="'Shantell Sans', cursive"><tspan x="16.4" y="31.67" dominant-baseline="ideographic">Yes</tspan></text></g></g></g><g id="g-root-tx_overflow_dhcbjm1hbwirl-fill" data-item-order="0" transform="translate(74, 566)"><g id="tx_overflow_dhcbjm1hbwirl-fill" stroke="none" fill="#484848"><g><text style="font: bold 20px &quot;Shantell Sans&quot;, cursive; white-space: pre;" font-weight="bold" font-size="20px" font-family="'Shantell Sans', cursive"><tspan x="21.16" y="35.33" dominant-baseline="ideographic">Overflow </tspan><tspan x="15.08" y="59.33" dominant-baseline="ideographic">Exception</tspan></text></g></g></g><g id="g-root-tx_heap_v3029e1hc0qo5-fill" data-item-order="0" transform="translate(554, 182)"><g id="tx_heap_v3029e1hc0qo5-fill" stroke="none" fill="#de8431"><g><text style="font: bold 20px &quot;Shantell Sans&quot;, cursive; white-space: pre;" font-weight="bold" font-size="20px" font-family="'Shantell Sans', cursive"><tspan x="14.05" y="35.33" dominant-baseline="ideographic">Heap</tspan></text></g></g></g><g id="g-root-tx_stackove_4nkqk21hbzaxb-fill" data-item-order="0" transform="translate(242, 578)"><g id="tx_stackove_4nkqk21hbzaxb-fill" stroke="none" fill="#484848"><g><text style="font: 15px &quot;Shantell Sans&quot;, cursive; white-space: pre;" font-size="15px" font-family="'Shantell Sans', cursive"><tspan x="13.09" y="31.67" dominant-baseline="ideographic">StackOverflowException</tspan></text></g></g></g><g id="g-root-tx_stack_1ur6d0y1hbzda9-fill" data-item-order="0" transform="translate(296, 182)"><g id="tx_stack_1ur6d0y1hbzda9-fill" stroke="none" fill="#e0cb15"><g><text style="font: bold 20px &quot;Shantell Sans&quot;, cursive; white-space: pre;" font-weight="bold" font-size="20px" font-family="'Shantell Sans', cursive"><tspan x="16.98" y="35.33" dominant-baseline="ideographic">Stack</tspan></text></g></g></g><g id="g-root-tx_outofmem_18fpisy1hc0r9f-fill" data-item-order="0" transform="translate(494, 578)"><g id="tx_outofmem_18fpisy1hc0r9f-fill" stroke="none" fill="#484848"><g><text style="font: 15px &quot;Shantell Sans&quot;, cursive; white-space: pre;" font-size="15px" font-family="'Shantell Sans', cursive"><tspan x="14.55" y="31.67" dominant-baseline="ideographic">OutOfMemoryException</tspan></text></g></g></g><g id="g-root-tx_analogy_4lpbaq1hbwjka-fill" data-item-order="0" transform="translate(86, 656)"><g id="tx_analogy_4lpbaq1hbwjka-fill" stroke="none" fill="#484848"><g><text style="font: bold 20px &quot;Shantell Sans&quot;, cursive; white-space: pre;" font-weight="bold" font-size="20px" font-family="'Shantell Sans', cursive"><tspan x="16.95" y="35.33" dominant-baseline="ideographic">Analogy</tspan></text></g></g></g><g id="g-root-tx_limited_v9va7m1hbzax8-fill" data-item-order="0" transform="translate(302, 386)"><g id="tx_limited_v9va7m1hbzax8-fill" stroke="none" fill="#484848"><g><text style="font: 15px &quot;Shantell Sans&quot;, cursive; white-space: pre;" font-size="15px" font-family="'Shantell Sans', cursive"><tspan x="13.62" y="31.67" dominant-baseline="ideographic">Limited</tspan></text></g></g></g><g id="g-root-tx_stackofp_1ut1saa1hbzcao-fill" data-item-order="0" transform="translate(272, 650)"><g id="tx_stackofp_1ut1saa1hbzcao-fill" stroke="none" fill="#484848"><g><text style="font: 15px &quot;Shantell Sans&quot;, cursive; white-space: pre;" font-size="15px" font-family="'Shantell Sans', cursive"><tspan x="13.38" y="28.67" dominant-baseline="ideographic">Stack of plates </tspan><tspan x="44.53" y="46.67" dominant-baseline="ideographic">(LIFO)</tspan></text></g></g></g><g id="g-root-tx_longerli_8wj0qa1hc0pvz-fill" data-item-order="0" transform="translate(536, 326)"><g id="tx_longerli_8wj0qa1hc0pvz-fill" stroke="none" fill="#484848"><g><text style="font: 15px &quot;Shantell Sans&quot;, cursive; white-space: pre;" font-size="15px" font-family="'Shantell Sans', cursive"><tspan x="13.15" y="31.67" dominant-baseline="ideographic">Longer-lived</tspan></text></g></g></g><g id="g-root-tx_warehous_v4vhiq1hc0pok-fill" data-item-order="0" transform="translate(506, 650)"><g id="tx_warehous_v4vhiq1hc0pok-fill" stroke="none" fill="#484848"><g><text style="font: 15px &quot;Shantell Sans&quot;, cursive; white-space: pre;" font-size="15px" font-family="'Shantell Sans', cursive"><tspan x="16.51" y="28.67" dominant-baseline="ideographic">Warehouse storage </tspan><tspan x="21.1" y="46.67" dominant-baseline="ideographic">(by reference IDs)</tspan></text></g></g></g><g id="g-root-tx_usecase_5vt6a1hbwkcj-fill" data-item-order="0" transform="translate(86, 728)"><g id="tx_usecase_5vt6a1hbwkcj-fill" stroke="none" fill="#484848"><g><text style="font: bold 20px &quot;Shantell Sans&quot;, cursive; white-space: pre;" font-weight="bold" font-size="20px" font-family="'Shantell Sans', cursive"><tspan x="12.67" y="35.33" dominant-baseline="ideographic">Use Case</tspan></text></g></g></g><g id="g-root-tx_stackvsh_1lw5tv61hbwikk-fill" data-item-order="0" transform="translate(164, 38)"><g id="tx_stackvsh_1lw5tv61hbwikk-fill" stroke="none" fill="#484848"><g><text style="font: bold 25px &quot;Shantell Sans&quot;, cursive; white-space: pre;" font-weight="bold" font-size="25px" font-family="'Shantell Sans', cursive"><tspan x="14.9" y="44.33" dominant-baseline="ideographic">                    Stack vs. Heap</tspan></text></g></g></g><g id="g-root-tx_localvar_1hi7r021hbzapt-fill" data-item-order="0" transform="translate(266, 722)"><g id="tx_localvar_1hi7r021hbzapt-fill" stroke="none" fill="#484848"><g><text style="font: 15px &quot;Shantell Sans&quot;, cursive; white-space: pre;" font-size="15px" font-family="'Shantell Sans', cursive"><tspan x="17.34" y="28.67" dominant-baseline="ideographic">Local variables, </tspan><tspan x="32.18" y="46.67" dominant-baseline="ideographic">value types</tspan></text></g></g></g><g id="g-root-tx_objectsr_htez5e1hc0r9h-fill" data-item-order="0" transform="translate(512, 722)"><g id="tx_objectsr_htez5e1hc0r9h-fill" stroke="none" fill="#484848"><g><text style="font: 15px &quot;Shantell Sans&quot;, cursive; white-space: pre;" font-size="15px" font-family="'Shantell Sans', cursive"><tspan x="15.11" y="28.67" dominant-baseline="ideographic">Objects, reference </tspan><tspan x="59.92" y="46.67" dominant-baseline="ideographic">types</tspan></text></g></g></g><g id="g-root-tx_size_v7zuya1hbwjk6-fill" data-item-order="0" transform="translate(134, 386)"><g id="tx_size_v7zuya1hbwjk6-fill" stroke="none" fill="#484848"><g><text style="font: bold 20px &quot;Shantell Sans&quot;, cursive; white-space: pre;" font-weight="bold" font-size="20px" font-family="'Shantell Sans', cursive"><tspan x="14.56" y="35.33" dominant-baseline="ideographic">Size</tspan></text></g></g></g><g id="g-root-tx_gcinvolv_hx5to21hbwhzc-fill" data-item-order="0" transform="translate(50, 506)"><g id="tx_gcinvolv_hx5to21hbwhzc-fill" stroke="none" fill="#484848"><g><text style="font: bold 20px &quot;Shantell Sans&quot;, cursive; white-space: pre;" font-weight="bold" font-size="20px" font-family="'Shantell Sans', cursive"><tspan x="12.66" y="35.33" dominant-baseline="ideographic">GC Involved</tspan></text></g></g></g><g id="g-root-cp_1_g-1_1_4ikxv61hbwhl0-stroke" data-item-order="-535144" transform="translate(218, 98)"><g id="cp_1_g-1_1_4ikxv61hbwhl0-stroke" fill="none" stroke-linecap="round" stroke-linejoin="round" stroke-miterlimit="4" stroke="#ffffff" stroke-width="2"><g><path d="M 22 10C 15.373 10 10 15.373 10 22M 238 130L 238 22M 10 22L 10 130M 22 10L 226 10M 238 22C 238 15.3826 232.6174 10 226 10"></path></g></g></g><g id="g-root-cp_0_g-0_1_1q88hgy1hbwiyu-stroke" data-item-order="-535116" transform="translate(218, 218)"><g id="cp_0_g-0_1_1q88hgy1hbwiyu-stroke" fill="none" stroke-linecap="round" stroke-linejoin="round" stroke-miterlimit="4" stroke="#ffffff" stroke-width="2"><g><path d="M 10 561.999939C 10 568.627339 15.3726 573.999939 22 573.999939M 226 573.999939L 22 573.999939M 226 573.999939C 232.6274 573.999939 238 568.627339 238 561.999939M 238 10L 238 561.999939M 10 561.999939L 10 10M 238 10L 10 10"></path></g></g></g><g id="g-root-cp_1-1_cell-1-1_1lsezci1hbwjr4-stroke" data-item-order="-535095" transform="translate(230, 230)"><g id="cp_1-1_cell-1-1_1lsezci1hbwjr4-stroke" fill="none" stroke-linecap="round" stroke-linejoin="round" stroke-miterlimit="4" stroke="#484848" stroke-width="2"><g><path d="M 10 22L 10 16C 10 12.6863 12.6863 10 16 10L 22 10M 214 22L 214 70M 10 70L 10 22M 22 10L 202 10M 10 70L 10 76C 10 79.3137 12.6863 82 16 82L 22 82M 214 22L 214 16C 214 12.6863 211.3137 10 208 10L 202 10M 202 82L 22 82M 214 70L 214 76C 214 79.3137 211.3137 82 208 82L 202 82"></path></g></g></g><g id="g-root-cp_2-1_cell-2-1_1cwrz3m1hbwkju-stroke" data-item-order="-535077" transform="translate(230, 314)"><g id="cp_2-1_cell-2-1_1cwrz3m1hbwkju-stroke" fill="none" stroke-linecap="round" stroke-linejoin="round" stroke-miterlimit="4" stroke="#484848" stroke-width="2"><g><path d="M 10 22L 10 16C 10 12.6863 12.6863 10 16 10L 22 10M 214 22L 214 46M 10 46L 10 22M 22 10L 202 10M 10 46L 10 52C 10 55.3137 12.6863 58 16 58L 22 58M 214 22L 214 16C 214 12.6863 211.3137 10 208 10L 202 10M 202 58L 22 58M 214 46L 214 52C 214 55.3137 211.3137 58 208 58L 202 58"></path></g></g></g><g id="g-root-cp_3-1_cell-3-1_18hky2a1hbwi6c-stroke" data-item-order="-535059" transform="translate(230, 374)"><g id="cp_3-1_cell-3-1_18hky2a1hbwi6c-stroke" fill="none" stroke-linecap="round" stroke-linejoin="round" stroke-miterlimit="4" stroke="#484848" stroke-width="2"><g><path d="M 10 22L 10 16C 10 12.6863 12.6863 10 16 10L 22 10M 214 22L 214 46M 10 46L 10 22M 22 10L 202 10M 10 46L 10 52C 10 55.3137 12.6863 58 16 58L 22 58M 214 22L 214 16C 214 12.6863 211.3137 10 208 10L 202 10M 202 58L 22 58M 214 46L 214 52C 214 55.3137 211.3137 58 208 58L 202 58"></path></g></g></g><g id="g-root-cp_4-1_cell-4-1_18hky2a1hbwi6e-stroke" data-item-order="-535041" transform="translate(230, 434)"><g id="cp_4-1_cell-4-1_18hky2a1hbwi6e-stroke" fill="none" stroke-linecap="round" stroke-linejoin="round" stroke-miterlimit="4" stroke="#484848" stroke-width="2"><g><path d="M 10 22L 10 16C 10 12.6863 12.6863 10 16 10L 22 10M 214 22L 214 46M 10 46L 10 22M 22 10L 202 10M 10 46L 10 52C 10 55.3137 12.6863 58 16 58L 22 58M 214 22L 214 16C 214 12.6863 211.3137 10 208 10L 202 10M 202 58L 22 58M 214 46L 214 52C 214 55.3137 211.3137 58 208 58L 202 58"></path></g></g></g><g id="g-root-cp_5-1_cell-5-1_141rfxu1hbwiyo-stroke" data-item-order="-535023" transform="translate(230, 494)"><g id="cp_5-1_cell-5-1_141rfxu1hbwiyo-stroke" fill="none" stroke-linecap="round" stroke-linejoin="round" stroke-miterlimit="4" stroke="#484848" stroke-width="2"><g><path d="M 10 22L 10 16C 10 12.6863 12.6863 10 16 10L 22 10M 214 22L 214 46M 10 46L 10 22M 22 10L 202 10M 10 46L 10 52C 10 55.3137 12.6863 58 16 58L 22 58M 214 22L 214 16C 214 12.6863 211.3137 10 208 10L 202 10M 202 58L 22 58M 214 46L 214 52C 214 55.3137 211.3137 58 208 58L 202 58"></path></g></g></g><g id="g-root-cp_6-1_cell-6-1_141rfxu1hbwiyq-stroke" data-item-order="-535005" transform="translate(230, 554)"><g id="cp_6-1_cell-6-1_141rfxu1hbwiyq-stroke" fill="none" stroke-linecap="round" stroke-linejoin="round" stroke-miterlimit="4" stroke="#484848" stroke-width="2"><g><path d="M 10 22L 10 16C 10 12.6863 12.6863 10 16 10L 22 10M 214 22L 214 70M 10 70L 10 22M 22 10L 202 10M 10 70L 10 76C 10 79.3137 12.6863 82 16 82L 22 82M 214 22L 214 16C 214 12.6863 211.3137 10 208 10L 202 10M 202 82L 22 82M 214 70L 214 76C 214 79.3137 211.3137 82 208 82L 202 82"></path></g></g></g><g id="g-root-cp_7-1_cell-7-1_v64foy1hbwjrg-stroke" data-item-order="-534987" transform="translate(230, 638)"><g id="cp_7-1_cell-7-1_v64foy1hbwjrg-stroke" fill="none" stroke-linecap="round" stroke-linejoin="round" stroke-miterlimit="4" stroke="#484848" stroke-width="2"><g><path d="M 10 22L 10 16C 10 12.6863 12.6863 10 16 10L 22 10M 214 22L 214 58M 10 58L 10 22M 22 10L 202 10M 10 58L 10 64C 10 67.3137 12.6863 70 16 70L 22 70M 214 22L 214 16C 214 12.6863 211.3137 10 208 10L 202 10M 202 70L 22 70M 214 58L 214 64C 214 67.3137 211.3137 70 208 70L 202 70"></path></g></g></g><g id="g-root-cp_8-1_cell-8-1_qqaxki1hbwkjq-stroke" data-item-order="-534969" transform="translate(230, 710)"><g id="cp_8-1_cell-8-1_qqaxki1hbwkjq-stroke" fill="none" stroke-linecap="round" stroke-linejoin="round" stroke-miterlimit="4" stroke="#484848" stroke-width="2"><g><path d="M 10 22L 10 16C 10 12.6863 12.6863 10 16 10L 22 10M 214 22L 214 58M 10 58L 10 22M 22 10L 202 10M 10 58L 10 64C 10 67.3137 12.6863 70 16 70L 22 70M 214 22L 214 16C 214 12.6863 211.3137 10 208 10L 202 10M 202 70L 22 70M 214 58L 214 64C 214 67.3137 211.3137 70 208 70L 202 70"></path></g></g></g><g id="g-root-cp_1_g-1_2_qqaxki1hbwkjs-stroke" data-item-order="-534950" transform="translate(470, 98)"><g id="cp_1_g-1_2_qqaxki1hbwkjs-stroke" fill="none" stroke-linecap="round" stroke-linejoin="round" stroke-miterlimit="4" stroke="#ffffff" stroke-width="2"><g><path d="M 22 10C 15.373 10 10 15.373 10 22M 238 130L 238 22M 10 22L 10 130M 22 10L 226 10M 238 22C 238 15.3826 232.6174 10 226 10"></path></g></g></g><g id="g-root-cp_0_g-0_2_mb3wj61hbwi6a-stroke" data-item-order="-534920" transform="translate(470, 218)"><g id="cp_0_g-0_2_mb3wj61hbwi6a-stroke" fill="none" stroke-linecap="round" stroke-linejoin="round" stroke-miterlimit="4" stroke="#ffffff" stroke-width="2"><g><path d="M 10 561.999939C 10 568.627339 15.3726 573.999939 22 573.999939M 226 573.999939L 22 573.999939M 226 573.999939C 232.6274 573.999939 238 568.627339 238 561.999939M 238 10L 238 561.999939M 10 561.999939L 10 10M 238 10L 10 10"></path></g></g></g><g id="g-root-cp_1-2_cell-1-2_dfgwaa1hbwiz0-stroke" data-item-order="-534899" transform="translate(482, 230)"><g id="cp_1-2_cell-1-2_dfgwaa1hbwiz0-stroke" fill="none" stroke-linecap="round" stroke-linejoin="round" stroke-miterlimit="4" stroke="#484848" stroke-width="2"><g><path d="M 10 22L 10 16C 10 12.6863 12.6863 10 16 10L 22 10M 214 22L 214 70M 10 70L 10 22M 22 10L 202 10M 10 70L 10 76C 10 79.3137 12.6863 82 16 82L 22 82M 214 22L 214 16C 214 12.6863 211.3137 10 208 10L 202 10M 202 82L 22 82M 214 70L 214 76C 214 79.3137 211.3137 82 208 82L 202 82"></path></g></g></g><g id="g-root-cp_2-2_cell-2-2_8zne5u1hbwjra-stroke" data-item-order="-534881" transform="translate(482, 314)"><g id="cp_2-2_cell-2-2_8zne5u1hbwjra-stroke" fill="none" stroke-linecap="round" stroke-linejoin="round" stroke-miterlimit="4" stroke="#484848" stroke-width="2"><g><path d="M 10 22L 10 16C 10 12.6863 12.6863 10 16 10L 22 10M 214 22L 214 46M 10 46L 10 22M 22 10L 202 10M 10 46L 10 52C 10 55.3137 12.6863 58 16 58L 22 58M 214 22L 214 16C 214 12.6863 211.3137 10 208 10L 202 10M 202 58L 22 58M 214 46L 214 52C 214 55.3137 211.3137 58 208 58L 202 58"></path></g></g></g><g id="g-root-cp_3-2_cell-3-2_4jtw1e1hbwkjk-stroke" data-item-order="-534863" transform="translate(482, 374)"><g id="cp_3-2_cell-3-2_4jtw1e1hbwkjk-stroke" fill="none" stroke-linecap="round" stroke-linejoin="round" stroke-miterlimit="4" stroke="#484848" stroke-width="2"><g><path d="M 10 22L 10 16C 10 12.6863 12.6863 10 16 10L 22 10M 214 22L 214 46M 10 46L 10 22M 22 10L 202 10M 10 46L 10 52C 10 55.3137 12.6863 58 16 58L 22 58M 214 22L 214 16C 214 12.6863 211.3137 10 208 10L 202 10M 202 58L 22 58M 214 46L 214 52C 214 55.3137 211.3137 58 208 58L 202 58"></path></g></g></g><g id="g-root-cp_4-2_cell-4-2_4jtw1e1hbwkjm-stroke" data-item-order="-534845" transform="translate(482, 434)"><g id="cp_4-2_cell-4-2_4jtw1e1hbwkjm-stroke" fill="none" stroke-linecap="round" stroke-linejoin="round" stroke-miterlimit="4" stroke="#484848" stroke-width="2"><g><path d="M 10 22L 10 16C 10 12.6863 12.6863 10 16 10L 22 10M 214 22L 214 46M 10 46L 10 22M 22 10L 202 10M 10 46L 10 52C 10 55.3137 12.6863 58 16 58L 22 58M 214 22L 214 16C 214 12.6863 211.3137 10 208 10L 202 10M 202 58L 22 58M 214 46L 214 52C 214 55.3137 211.3137 58 208 58L 202 58"></path></g></g></g><g id="g-root-cp_5-2_cell-5-2_1upxeuq1hbwhzg-stroke" data-item-order="-534827" transform="translate(482, 494)"><g id="cp_5-2_cell-5-2_1upxeuq1hbwhzg-stroke" fill="none" stroke-linecap="round" stroke-linejoin="round" stroke-miterlimit="4" stroke="#484848" stroke-width="2"><g><path d="M 10 22L 10 16C 10 12.6863 12.6863 10 16 10L 22 10M 214 22L 214 46M 10 46L 10 22M 22 10L 202 10M 10 46L 10 52C 10 55.3137 12.6863 58 16 58L 22 58M 214 22L 214 16C 214 12.6863 211.3137 10 208 10L 202 10M 202 58L 22 58M 214 46L 214 52C 214 55.3137 211.3137 58 208 58L 202 58"></path></g></g></g><g id="g-root-cp_6-2_cell-6-2_1upxeuq1hbwhzi-stroke" data-item-order="-534809" transform="translate(482, 554)"><g id="cp_6-2_cell-6-2_1upxeuq1hbwhzi-stroke" fill="none" stroke-linecap="round" stroke-linejoin="round" stroke-miterlimit="4" stroke="#484848" stroke-width="2"><g><path d="M 10 22L 10 16C 10 12.6863 12.6863 10 16 10L 22 10M 214 22L 214 70M 10 70L 10 22M 22 10L 202 10M 10 70L 10 76C 10 79.3137 12.6863 82 16 82L 22 82M 214 22L 214 16C 214 12.6863 211.3137 10 208 10L 202 10M 202 82L 22 82M 214 70L 214 76C 214 79.3137 211.3137 82 208 82L 202 82"></path></g></g></g><g id="g-root-cp_7-2_cell-7-2_1qa3wqa1hbwirs-stroke" data-item-order="-534791" transform="translate(482, 638)"><g id="cp_7-2_cell-7-2_1qa3wqa1hbwirs-stroke" fill="none" stroke-linecap="round" stroke-linejoin="round" stroke-miterlimit="4" stroke="#484848" stroke-width="2"><g><path d="M 10 22L 10 16C 10 12.6863 12.6863 10 16 10L 22 10M 214 22L 214 58M 10 58L 10 22M 22 10L 202 10M 10 58L 10 64C 10 67.3137 12.6863 70 16 70L 22 70M 214 22L 214 16C 214 12.6863 211.3137 10 208 10L 202 10M 202 70L 22 70M 214 58L 214 64C 214 67.3137 211.3137 70 208 70L 202 70"></path></g></g></g><g id="g-root-cp_8-2_cell-8-2_1luaelu1hbwjk2-stroke" data-item-order="-534773" transform="translate(482, 710)"><g id="cp_8-2_cell-8-2_1luaelu1hbwjk2-stroke" fill="none" stroke-linecap="round" stroke-linejoin="round" stroke-miterlimit="4" stroke="#484848" stroke-width="2"><g><path d="M 10 22L 10 16C 10 12.6863 12.6863 10 16 10L 22 10M 214 22L 214 58M 10 58L 10 22M 22 10L 202 10M 10 58L 10 64C 10 67.3137 12.6863 70 16 70L 22 70M 214 22L 214 16C 214 12.6863 211.3137 10 208 10L 202 10M 202 70L 22 70M 214 58L 214 64C 214 67.3137 211.3137 70 208 70L 202 70"></path></g></g></g><g id="g-root-ic_over_1d0itma1hbwjd9-stroke" data-item-order="-2304" transform="translate(308, 122)"></g><g id="g-root-ic_laye_146r8mq1hbzcaq-stroke" data-item-order="-2304" transform="translate(560, 122)"></g><g id="g-root-tx_shortliv_18kpbhu1hbzci3-stroke" data-item-order="0" transform="translate(290, 326)"></g><g id="g-root-tx_large_w0he1hc0rgg-stroke" data-item-order="0" transform="translate(560, 386)"></g><g id="g-root-tx_manageme_mccupe1hbwkcv-stroke" data-item-order="0" transform="translate(38, 446)"></g><g id="g-root-tx_lifetime_18jgdbm1hbwhz9-stroke" data-item-order="0" transform="translate(86, 326)"></g><g id="g-root-tx_compiler_hyerua1hbzci5-stroke" data-item-order="0" transform="translate(266, 446)"></g><g id="g-root-tx_slower_hrjjw21hc0s92-stroke" data-item-order="0" transform="translate(554, 254)"></g><g id="g-root-tx_garbagec_1q6d27m1hc0s21-stroke" data-item-order="0" transform="translate(512, 446)"></g><g id="g-root-tx_veryfast_1lw5tv61hbzax6-stroke" data-item-order="0" transform="translate(296, 254)"></g><g id="g-root-tx_no_dil9pu1hbzdae-stroke" data-item-order="0" transform="translate(320, 506)"></g><g id="g-root-tx_allocati_1cynecy1hbwkcs-stroke" data-item-order="0" transform="translate(62, 242)"></g><g id="g-root-tx_yes_1lr616a1hc0poi-stroke" data-item-order="0" transform="translate(566, 506)"></g><g id="g-root-tx_overflow_dhcbjm1hbwirl-stroke" data-item-order="0" transform="translate(74, 566)"></g><g id="g-root-tx_heap_v3029e1hc0qo5-stroke" data-item-order="0" transform="translate(554, 182)"></g><g id="g-root-tx_stackove_4nkqk21hbzaxb-stroke" data-item-order="0" transform="translate(242, 578)"></g><g id="g-root-tx_stack_1ur6d0y1hbzda9-stroke" data-item-order="0" transform="translate(296, 182)"></g><g id="g-root-tx_outofmem_18fpisy1hc0r9f-stroke" data-item-order="0" transform="translate(494, 578)"></g><g id="g-root-tx_analogy_4lpbaq1hbwjka-stroke" data-item-order="0" transform="translate(86, 656)"></g><g id="g-root-tx_limited_v9va7m1hbzax8-stroke" data-item-order="0" transform="translate(302, 386)"></g><g id="g-root-tx_stackofp_1ut1saa1hbzcao-stroke" data-item-order="0" transform="translate(272, 650)"></g><g id="g-root-tx_longerli_8wj0qa1hc0pvz-stroke" data-item-order="0" transform="translate(536, 326)"></g><g id="g-root-tx_warehous_v4vhiq1hc0pok-stroke" data-item-order="0" transform="translate(506, 650)"></g><g id="g-root-tx_usecase_5vt6a1hbwkcj-stroke" data-item-order="0" transform="translate(86, 728)"></g><g id="g-root-tx_stackvsh_1lw5tv61hbwikk-stroke" data-item-order="0" transform="translate(164, 38)"></g><g id="g-root-tx_localvar_1hi7r021hbzapt-stroke" data-item-order="0" transform="translate(266, 722)"></g><g id="g-root-tx_objectsr_htez5e1hc0r9h-stroke" data-item-order="0" transform="translate(512, 722)"></g><g id="g-root-tx_size_v7zuya1hbwjk6-stroke" data-item-order="0" transform="translate(134, 386)"></g><g id="g-root-tx_gcinvolv_hx5to21hbwhzc-stroke" data-item-order="0" transform="translate(50, 506)"></g></g></g><path id="w1lt1mr61ko5pu2" d="M65.283 12.757a.35.35 0 0 0 .584.157l5.203-5.141-6.183 3.523.396 1.461zm-2.216-11.7a.35.35 0 0 0-.522.305v3.111l3.276-1.868-2.754-1.548zm3.728 2.105l-4.25 2.421v2.445l6.391-3.644-2.141-1.222zm4.708 3.303a.35.35 0 0 0 0-.609l-1.592-.9-7.365 4.199v1.782a.35.35 0 0 0 .523.305l8.435-4.777z M44.542 2.513c0-.433.355-.783.792-.783s.792.35.792.783-.355.783-.792.783-.792-.35-.792-.783zm59.171 0c0-.433.355-.783.792-.783s.792.35.792.783-.355.783-.792.783-.792-.35-.792-.783zm-85.951 7.636h-1.27v-.487c-.276.201-.864.609-1.881.609-1.202 0-2.274-.794-2.137-2.078.118-1.106 1.153-1.584 1.848-1.727l2.17-.345c0-.539-.29-.956-1.064-1.006s-1.21.305-1.571 1.017l-1.124-.605c1.218-2.631 5.029-1.764 5.029.414v4.207zm-1.27-2.86c.006.396-.062 1.112-.819 1.59-.587.37-1.841.299-1.903-.395-.049-.555.461-.791.906-.898l1.816-.297zm72.662 2.86h-1.27v-.487c-.276.201-.864.609-1.881.609-1.202 0-2.274-.794-2.137-2.078.118-1.106 1.153-1.584 1.848-1.727l2.17-.345c0-.539-.29-.956-1.064-1.006s-1.21.305-1.571 1.017l-1.124-.605c1.218-2.631 5.029-1.764 5.029.414v4.207zm-1.27-2.86c.006.396-.062 1.112-.82 1.59-.587.37-1.841.299-1.903-.395-.049-.555.461-.791.906-.898l1.816-.297zM99.096 10.149H97.85v-8.45h1.246v4.895l2.68-2.559h1.738l-2.633 2.535 2.715 3.578h-1.556l-2.077-2.707-.867.844v1.863zm6.053-6.114h-1.255v6.113h1.255V4.035zm-59.2 0h-1.255v6.113h1.255V4.035zm5.584 6.113V1.697h1.255v2.695c.361-.346 1-.485 1.47-.485 1.452 0 2.477 1.082 2.457 2.448v3.792h-1.27v-3.68c0-.408-.214-1.339-1.315-1.339-.968 0-1.342.756-1.342 1.339v3.681h-1.255zm-4.76-4.894V4.039h.621a.45.45 0 0 0 .45-.45v-.855h1.251v1.305h1.309v1.215h-1.309v3.109c0 .293.105.664.648.664.365 0 .531-.035.736-.07v1.137s-.361.113-.857.113c-1.398 0-1.777-1.051-1.777-1.788V5.254h-1.071zM36.528 4.039h-1.394l2.191 6.106h1.125l1.234-3.918 1.238 3.918h1.129l2.188-6.106h-1.383l-1.359 3.93-1.256-3.93h-1.124l-1.242 3.957-1.348-3.957zM26.212 7.141c-.02 1.566 1.187 3.129 3.223 3.129 1.566 0 2.383-.918 2.734-1.719L31.172 8c-.315.399-.801 1.094-1.738 1.094-1.145 0-1.825-.781-1.891-1.52h4.625c.074-.284.148-.995-.03-1.559-.336-1.064-1.221-2.102-2.839-2.102s-3.088 1.152-3.088 3.227zm1.363-.75h3.348c-.055-.43-.566-1.301-1.623-1.301a1.79 1.79 0 0 0-1.725 1.301zm-8.758.75c.038 1.758 1.277 3.133 3.145 3.133 1.074 0 1.723-.477 1.961-.672v.547h1.242V1.703h-1.258v2.888c-.414-.36-1.062-.68-1.93-.68-1.91 0-3.198 1.473-3.16 3.23zm1.309-.08c0 1.119.723 1.978 1.836 1.978a1.88 1.88 0 0 0 1.94-1.904c0-1.371-1.011-1.99-1.972-1.99s-1.805.798-1.805 1.916zm76.683-.028C96.771 5.275 95.532 3.9 93.664 3.9c-1.074 0-1.723.477-1.961.672v-.547h-1.242v8.22h1.258V9.583c.414.36 1.063.68 1.93.68 1.91 0 3.198-1.473 3.16-3.23zm-1.309.08c0-1.119-.723-1.978-1.836-1.978a1.88 1.88 0 0 0-1.94 1.904c0 1.371 1.011 1.99 1.972 1.99S95.5 8.231 95.5 7.113zM106.441 10.173V4.036h1.254v.382c.361-.346 1-.485 1.47-.485 1.452 0 2.477 1.082 2.457 2.448v3.792h-1.27V6.492c0-.408-.214-1.339-1.315-1.339-.969 0-1.342.756-1.342 1.339v3.681h-1.254zm-30.383-.021V1.824h1.084l4.215 5.777V1.824h1.32v8.328h-1.094l-4.207-5.796v5.796h-1.319zM5.24 10.149H4V2.377h1.014l2.664 3.597 2.654-3.592h1.03v7.766h-1.256V4.762L7.678 8.068 5.24 4.742v5.407z" transform="translate(620, 818)" fill="#80808088" stroke="none"></path></svg>